<svg width="16" height="17" viewBox="0 0 16 17" fill="none" xmlns="http://www.w3.org/2000/svg">
<path d="M15.5553 0.5H5.77756C5.53189 0.5 5.3331 0.698792 5.3331 0.944458C5.3331 1.19012 5.53189 1.38892 5.77756 1.38892H14.4824L0.129975 15.7413C-0.0436504 15.915 -0.0436504 16.1962 0.129975 16.3698C0.216766 16.4566 0.330516 16.5 0.444225 16.5C0.557933 16.5 0.671641 16.4566 0.758475 16.3698L15.1109 2.01737V10.7222C15.1109 10.9679 15.3097 11.1667 15.5553 11.1667C15.801 11.1667 15.9998 10.9679 15.9998 10.7222V0.944458C15.9998 0.698792 15.801 0.5 15.5553 0.5Z" fill="#181A20"/>
</svg>