<svg width="26" height="25" viewBox="0 0 26 25" fill="none" xmlns="http://www.w3.org/2000/svg">
<path d="M21.8889 19.1667V9.53475C21.8852 7.37547 21.0258 5.30568 19.499 3.77883C17.9722 2.25199 15.9024 1.39259 13.7431 1.38892H12.257C10.0977 1.39259 8.0279 2.25199 6.50105 3.77883C4.97421 5.30568 4.11481 7.37547 4.11114 9.53475V19.1667H1.88892V20.6459H7.07642V23.6111H8.55558V20.6459H17.4445V23.6111H18.9236V20.6459H24.1111V19.1667H21.8889ZM20.4097 9.53475V11.0139H13.7431V2.86808C15.5106 2.86992 17.2053 3.57289 18.4551 4.82273C19.7049 6.07258 20.4079 7.7672 20.4097 9.53475ZM5.59725 9.53475C5.59909 7.7672 6.30206 6.07258 7.5519 4.82273C8.80174 3.57289 10.4964 2.86992 12.2639 2.86808V11.0209H5.5903L5.59725 9.53475ZM5.59725 12.5H12.2639V19.1667H5.5903L5.59725 12.5ZM13.7431 19.1667V12.5H20.4097V19.1667H13.7431Z" fill="#181A20"/>
</svg>
