<svg width="26" height="25" viewBox="0 0 26 25" fill="none" xmlns="http://www.w3.org/2000/svg">
<path d="M22.8818 7.72225L19.6665 6.11808V3.61114C19.6665 3.02177 19.4324 2.45654 19.0157 2.03979C18.5989 1.62304 18.0337 1.38892 17.4443 1.38892H8.55543C7.96606 1.38892 7.40083 1.62304 6.98409 2.03979C6.56734 2.45654 6.33321 3.02177 6.33321 3.61114V6.11808L3.11793 7.72225C2.74575 7.90634 2.433 8.19164 2.21559 8.54539C1.99817 8.89915 1.8849 9.30704 1.88877 9.72225V22.8681C1.88877 23.0652 1.96705 23.2542 2.1064 23.3935C2.24575 23.5329 2.43475 23.6111 2.63182 23.6111H23.3679C23.565 23.6111 23.754 23.5329 23.8934 23.3935C24.0327 23.2542 24.111 23.0652 24.111 22.8681V9.72225C24.1149 9.30704 24.0016 8.89915 23.7842 8.54539C23.5668 8.19164 23.254 7.90634 22.8818 7.72225ZM6.33321 22.132H3.36793V9.72225C3.36127 9.57919 3.39648 9.43729 3.46926 9.31394C3.54203 9.19059 3.64921 9.09115 3.77766 9.0278L6.33321 7.77086V22.132ZM15.2221 22.132H10.7777V19.1667H15.2221V22.132ZM18.1874 22.132H16.7013V18.4236C16.7013 18.3261 16.682 18.2294 16.6447 18.1393C16.6074 18.0491 16.5526 17.9672 16.4836 17.8982C16.4146 17.8292 16.3327 17.7745 16.2426 17.7371C16.1524 17.6998 16.0558 17.6806 15.9582 17.6806H10.0346C9.83753 17.6806 9.64853 17.7589 9.50918 17.8982C9.36983 18.0376 9.29155 18.2266 9.29155 18.4236V22.125H7.81238V3.61114C7.81238 3.41407 7.89067 3.22507 8.03001 3.08572C8.16936 2.94637 8.35836 2.86808 8.55543 2.86808H17.4443C17.6414 2.86808 17.8304 2.94637 17.9697 3.08572C18.1091 3.22507 18.1874 3.41407 18.1874 3.61114V22.132ZM22.6318 22.132H19.6665V7.77086L22.2221 9.0278C22.3505 9.09115 22.4577 9.19059 22.5305 9.31394C22.6033 9.43729 22.6385 9.57919 22.6318 9.72225V22.132Z" fill="#181A20"/>
<path d="M13.7432 13.243H16.7084V14.7222H13.7432V13.243Z" fill="#181A20"/>
<path d="M9.29858 13.243H12.2639V14.7222H9.29858V13.243Z" fill="#181A20"/>
<path d="M13.7432 10.2778H16.7084V11.757H13.7432V10.2778Z" fill="#181A20"/>
<path d="M9.29858 10.2778H12.2639V11.757H9.29858V10.2778Z" fill="#181A20"/>
<path d="M13.7432 7.3125H16.7084V8.79167H13.7432V7.3125Z" fill="#181A20"/>
<path d="M9.29858 7.3125H12.2639V8.79167H9.29858V7.3125Z" fill="#181A20"/>
<path d="M13.7432 4.35413H16.7084V5.83329H13.7432V4.35413Z" fill="#181A20"/>
<path d="M9.29858 4.35413H12.2639V5.83329H9.29858V4.35413Z" fill="#181A20"/>
</svg>
