<svg width="26" height="25" viewBox="0 0 26 25" fill="none" xmlns="http://www.w3.org/2000/svg">
<path d="M21.7361 6.58493L15.0833 2.02509C14.4687 1.6111 13.7429 1.38977 13 1.38977C12.257 1.38977 11.5312 1.6111 10.9166 2.02509L4.26386 6.58493C3.77301 6.92158 3.37187 7.37135 3.09487 7.89564C2.81788 8.41993 2.67331 9.00307 2.67358 9.59498V19.7616C2.67358 20.242 2.76896 20.7176 2.95428 21.1613C3.13959 21.6051 3.41121 22.0083 3.75363 22.3479C4.09604 22.6875 4.50255 22.9569 4.94994 23.1408C5.39733 23.3246 5.87683 23.4192 6.36108 23.4192H19.6389C20.1231 23.4192 20.6026 23.3246 21.05 23.1408C21.4974 22.9569 21.9039 22.6875 22.2463 22.3479C22.5887 22.0083 22.8604 21.6051 23.0457 21.1613C23.231 20.7176 23.3264 20.242 23.3264 19.7616V9.58809C23.3255 8.99734 23.1804 8.41559 22.9035 7.89259C22.6265 7.36959 22.226 6.92091 21.7361 6.58493ZM5.06942 7.79033L11.7083 3.23048C12.0794 2.97816 12.5188 2.84311 12.9687 2.84311C13.4186 2.84311 13.858 2.97816 14.2291 3.23048L20.868 7.79033C21.1617 7.99266 21.4016 8.26247 21.5672 8.57673C21.7329 8.89099 21.8194 9.24035 21.8194 9.59498V18.3014H4.15275V9.58809C4.15274 9.23347 4.23926 8.8841 4.40493 8.56984C4.57061 8.25558 4.81051 7.98577 5.10414 7.78344L5.06942 7.79033ZM21.2014 21.3114C20.9966 21.5154 20.753 21.677 20.4848 21.787C20.2166 21.8969 19.9291 21.953 19.6389 21.952H6.36108C5.77356 21.952 5.21009 21.7205 4.79465 21.3085C4.3792 20.8964 4.14581 20.3375 4.14581 19.7548H21.8472C21.8491 20.0438 21.793 20.3303 21.6821 20.5975C21.5713 20.8648 21.4078 21.1075 21.2014 21.3114Z" fill="#181A20"/>
<path d="M13.0486 16.1041C13.4552 16.1041 13.7847 15.7772 13.7847 15.3739C13.7847 14.9707 13.4552 14.6438 13.0486 14.6438C12.6421 14.6438 12.3125 14.9707 12.3125 15.3739C12.3125 15.7772 12.6421 16.1041 13.0486 16.1041Z" fill="#181A20"/>
<path d="M13.0487 11.7096C12.4019 11.7105 11.7665 11.8795 11.2061 12.1997C10.6456 12.52 10.1795 12.9803 9.85425 13.5349L11.132 14.265C11.3267 13.9319 11.6062 13.6553 11.9426 13.463C12.279 13.2707 12.6604 13.1695 13.0487 13.1695C13.4369 13.1695 13.8184 13.2707 14.1548 13.463C14.4911 13.6553 14.7707 13.9319 14.9654 14.265L16.2431 13.5349C15.9179 12.9803 15.4518 12.52 14.8913 12.1997C14.3308 11.8795 13.6955 11.7105 13.0487 11.7096Z" fill="#181A20"/>
<path d="M13.0486 10.2493C13.9549 10.2511 14.8448 10.4886 15.6296 10.9383C16.4143 11.3879 17.0665 12.0338 17.5208 12.8116L18.7986 12.0815C18.216 11.0802 17.3779 10.2487 16.3685 9.67057C15.3592 9.09245 14.2141 8.78809 13.0486 8.78809C11.883 8.78809 10.738 9.09245 9.72866 9.67057C8.71931 10.2487 7.88119 11.0802 7.29858 12.0815L8.57636 12.8116C9.03071 12.0338 9.68283 11.3879 10.4676 10.9383C11.2524 10.4886 12.1423 10.2511 13.0486 10.2493Z" fill="#181A20"/>
</svg>
