<svg width="25" height="25" viewBox="0 0 25 25" fill="none" xmlns="http://www.w3.org/2000/svg">
<g clip-path="url(#clip0_261_4652)">
<path d="M23.9219 9.69536L15.4453 1.21879C15.0586 0.831861 14.5994 0.524917 14.0941 0.315498C13.5887 0.10608 13.047 -0.00170898 12.5 -0.00170898C11.9529 -0.00170898 11.4113 0.10608 10.9059 0.315498C10.4005 0.524917 9.94137 0.831861 9.55467 1.21879L1.07811 9.69536C0.938085 9.85492 0.864015 10.0618 0.870927 10.2739C0.877839 10.4861 0.965215 10.6877 1.11532 10.8378C1.26543 10.9879 1.46703 11.0753 1.6792 11.0822C1.89138 11.0891 2.09823 11.0151 2.25779 10.875L10.7344 2.39848C11.2107 1.94564 11.8428 1.69312 12.5 1.69312C13.1572 1.69312 13.7893 1.94564 14.2656 2.39848L22.7422 10.875C22.8176 10.961 22.9099 11.0306 23.0133 11.0794C23.1166 11.1283 23.229 11.1554 23.3433 11.1592C23.4576 11.1629 23.5714 11.1431 23.6778 11.1011C23.7841 11.059 23.8807 10.9956 23.9616 10.9148C24.0424 10.8339 24.1059 10.7373 24.1479 10.631C24.1899 10.5246 24.2097 10.4108 24.206 10.2965C24.2023 10.1822 24.1751 10.0698 24.1262 9.96644C24.0774 9.86305 24.0078 9.77079 23.9219 9.69536Z" fill="#181A20"/>
<path d="M12.5 20H7.5C6.83696 20 6.20107 19.7366 5.73223 19.2677C5.26339 18.7989 5 18.163 5 17.5V11.9531C4.97994 11.7463 4.88362 11.5545 4.7298 11.4148C4.57599 11.2752 4.3757 11.1979 4.16797 11.1979C3.96024 11.1979 3.75995 11.2752 3.60613 11.4148C3.45232 11.5545 3.356 11.7463 3.33594 11.9531V17.5C3.338 18.6037 3.77738 19.6617 4.55784 20.4421C5.33831 21.2226 6.39626 21.662 7.5 21.664H11.6641V24.164C11.6841 24.3708 11.7804 24.5627 11.9343 24.7023C12.0881 24.8419 12.2884 24.9193 12.4961 24.9193C12.7038 24.9193 12.9041 24.8419 13.0579 24.7023C13.2117 24.5627 13.3081 24.3708 13.3281 24.164V20.8359C13.3281 20.6156 13.2411 20.4041 13.0861 20.2476C12.931 20.091 12.7203 20.002 12.5 20Z" fill="#181A20"/>
<path d="M20.836 11.1172C20.6143 11.1172 20.4016 11.2053 20.2449 11.362C20.0881 11.5188 20 11.7314 20 11.9531V17.5C20 18.163 19.7366 18.7989 19.2678 19.2678C18.799 19.7366 18.1631 20 17.5 20H15.836C15.7199 19.9887 15.6028 20.0019 15.4922 20.0386C15.3815 20.0753 15.2797 20.1347 15.1934 20.2131C15.1071 20.2914 15.0381 20.387 14.9909 20.4936C14.9437 20.6002 14.9193 20.7154 14.9193 20.832C14.9193 20.9486 14.9437 21.0639 14.9909 21.1705C15.0381 21.2771 15.1071 21.3727 15.1934 21.451C15.2797 21.5294 15.3815 21.5888 15.4922 21.6255C15.6028 21.6622 15.7199 21.6753 15.836 21.6641H17.5C18.6038 21.662 19.6617 21.2226 20.4422 20.4422C21.2227 19.6617 21.662 18.6037 21.6641 17.5V11.9531C21.6641 11.7328 21.5771 11.5213 21.422 11.3648C21.2669 11.2082 21.0563 11.1192 20.836 11.1172Z" fill="#181A20"/>
<path d="M16.7422 12.5C16.7422 11.661 16.4934 10.8408 16.0273 10.1432C15.5611 9.44554 14.8986 8.90181 14.1234 8.58073C13.3483 8.25965 12.4953 8.17564 11.6724 8.33933C10.8495 8.50301 10.0936 8.90704 9.50032 9.50032C8.90704 10.0936 8.50301 10.8495 8.33933 11.6724C8.17564 12.4953 8.25965 13.3483 8.58073 14.1234C8.90181 14.8986 9.44554 15.5611 10.1432 16.0273C10.8408 16.4934 11.661 16.7422 12.5 16.7422C13.6245 16.7401 14.7023 16.2925 15.4974 15.4974C16.2925 14.7023 16.7401 13.6245 16.7422 12.5ZM10.0781 12.5C10.0781 12.021 10.2202 11.5528 10.4863 11.1545C10.7524 10.7562 11.1307 10.4458 11.5732 10.2625C12.0157 10.0792 12.5027 10.0312 12.9725 10.1247C13.4423 10.2181 13.8738 10.4488 14.2125 10.7875C14.5512 11.1262 14.7819 11.5577 14.8753 12.0275C14.9688 12.4973 14.9208 12.9843 14.7375 13.4268C14.5542 13.8694 14.2438 14.2476 13.8455 14.5137C13.4472 14.7798 12.979 14.9219 12.5 14.9219C11.8583 14.9198 11.2435 14.664 10.7898 14.2102C10.336 13.7565 10.0802 13.1417 10.0781 12.5Z" fill="#181A20"/>
</g>
<defs>
<clipPath id="clip0_261_4652">
<rect width="25" height="25" fill="white"/>
</clipPath>
</defs>
</svg>
