<svg width="26" height="25" viewBox="0 0 26 25" fill="none" xmlns="http://www.w3.org/2000/svg">
<path d="M18.9236 23.6111H7.07639C6.09528 23.6093 5.15489 23.2188 4.46114 22.525C3.76739 21.8313 3.37684 20.8909 3.375 19.9098V9.02781C3.37696 8.42148 3.52812 7.82495 3.81515 7.29086C4.10218 6.75676 4.51625 6.30153 5.02083 5.96531L10.9167 2.01392C11.5306 1.59473 12.2566 1.37048 13 1.37048C13.7434 1.37048 14.4694 1.59473 15.0833 2.01392L21.0069 5.96531C21.5077 6.30389 21.9177 6.76017 22.201 7.29411C22.4843 7.82805 22.6323 8.42336 22.6319 9.02781V19.9098C22.6301 20.8921 22.2386 21.8335 21.5433 22.5275C20.8481 23.2214 19.9059 23.6111 18.9236 23.6111ZM13 2.86809C12.5623 2.8693 12.1347 2.99976 11.7708 3.24309L5.84028 7.19448C5.53829 7.39588 5.29041 7.66841 5.11846 7.9881C4.94651 8.30778 4.85575 8.66482 4.85417 9.02781V19.9098C4.85417 20.4991 5.08829 21.0644 5.50504 21.4811C5.92179 21.8979 6.48702 22.132 7.07639 22.132H18.9236C19.513 22.132 20.0782 21.8979 20.495 21.4811C20.9117 21.0644 21.1458 20.4991 21.1458 19.9098V9.02781C21.1465 8.66247 21.0569 8.30263 20.8848 7.98033C20.7128 7.65804 20.4637 7.3833 20.1597 7.18059L14.2292 3.24309C13.8655 2.99938 13.4378 2.86889 13 2.86809Z" fill="white"/>
<path d="M10.0347 18.4236H15.9583V19.9028H10.0347V18.4236Z" fill="white"/>
</svg>
